<?xml version="1.0" encoding="UTF-8" standalone="no"?>
<svg
   xmlns:dc="http://purl.org/dc/elements/1.1/"
   xmlns:cc="http://creativecommons.org/ns#"
   xmlns:rdf="http://www.w3.org/1999/02/22-rdf-syntax-ns#"
   xmlns:svg="http://www.w3.org/2000/svg"
   xmlns="http://www.w3.org/2000/svg"
   xmlns:sodipodi="http://sodipodi.sourceforge.net/DTD/sodipodi-0.dtd"
   xmlns:inkscape="http://www.inkscape.org/namespaces/inkscape"
   version="1.1"
   id="Layer_1"
   x="0px"
   y="0px"
   viewBox="0 0 36 36"
   enable-background="new 0 0 36 36"
   xml:space="preserve"
   sodipodi:docname="CFS.svg"
   inkscape:version="1.0 (4035a4fb49, 2020-05-01)"><metadata
   id="metadata9"><rdf:RDF><cc:Work
       rdf:about=""><dc:format>image/svg+xml</dc:format><dc:type
         rdf:resource="http://purl.org/dc/dcmitype/StillImage" /><dc:title></dc:title></cc:Work></rdf:RDF></metadata><defs
   id="defs7" /><sodipodi:namedview
   inkscape:document-rotation="0"
   pagecolor="#ffffff"
   bordercolor="#666666"
   borderopacity="1"
   objecttolerance="10"
   gridtolerance="10"
   guidetolerance="10"
   inkscape:pageopacity="0"
   inkscape:pageshadow="2"
   inkscape:window-width="1920"
   inkscape:window-height="1017"
   id="namedview5"
   showgrid="false"
   inkscape:pagecheckerboard="true"
   inkscape:zoom="17.277804"
   inkscape:cx="19.912933"
   inkscape:cy="20.311989"
   inkscape:window-x="-8"
   inkscape:window-y="-8"
   inkscape:window-maximized="1"
   inkscape:current-layer="Layer_1" />

<path
   id="path2"
   d="M 8.5988416,17.483189 7.4789193,13.568181 C 9.2524708,13.060829 11.121918,12.986285 12.930217,13.350838 11.965238,7.5656199 15.495635,1.9774211 21.134619,0.36430704 l 1.119922,3.91505046 c -3.961996,1.1333716 -6.255044,5.2639828 -5.121672,9.2259785 1.133371,3.961996 5.263982,6.255044 9.225968,5.121672 l 1.119932,3.915008 c -1.773551,0.507352 -3.642955,0.581896 -5.451297,0.217342 0.964979,5.785208 -2.565418,11.373407 -8.204402,12.986479 l -1.119922,-3.915008 c 3.961996,-1.133372 6.255044,-5.263972 5.121672,-9.226011 -1.133329,-3.961953 -5.263983,-6.255001 -9.2259784,-5.121629 z"
   stroke-miterlimit="10"
   stroke-linejoin="round"
   stroke-linecap="round"
   stroke-width="0.031654"
   stroke="#000000"
   fill="#231f20" /></svg>
