<?xml version="1.0" encoding="UTF-8" standalone="no"?>
<svg
   xmlns:dc="http://purl.org/dc/elements/1.1/"
   xmlns:cc="http://creativecommons.org/ns#"
   xmlns:rdf="http://www.w3.org/1999/02/22-rdf-syntax-ns#"
   xmlns:svg="http://www.w3.org/2000/svg"
   xmlns="http://www.w3.org/2000/svg"
   xmlns:sodipodi="http://sodipodi.sourceforge.net/DTD/sodipodi-0.dtd"
   xmlns:inkscape="http://www.inkscape.org/namespaces/inkscape"
   viewBox="0 0 67.733332 26.458334"
   version="1.1"
   id="svg206"
   inkscape:version="1.0 (4035a4fb49, 2020-05-01)"
   sodipodi:docname="real logo.svg">
  <defs
     id="defs200" />
  <sodipodi:namedview
     units="px"
     id="base"
     pagecolor="#ffffff"
     bordercolor="#666666"
     borderopacity="1.0"
     inkscape:pageopacity="0.0"
     inkscape:pageshadow="2"
     inkscape:zoom="4.0235508"
     inkscape:cx="136.66594"
     inkscape:cy="72.728659"
     inkscape:document-units="mm"
     inkscape:current-layer="layer1"
     inkscape:document-rotation="0"
     showgrid="false"
     inkscape:window-width="1920"
     inkscape:window-height="1001"
     inkscape:window-x="-9"
     inkscape:window-y="-9"
     inkscape:window-maximized="1" />
  <metadata
     id="metadata203">
    <rdf:RDF>
      <cc:Work
         rdf:about="">
        <dc:format>image/svg+xml</dc:format>
        <dc:type
           rdf:resource="http://purl.org/dc/dcmitype/StillImage" />
        <dc:title></dc:title>
      </cc:Work>
    </rdf:RDF>
  </metadata>
  <g
     inkscape:label="图层 1"
     inkscape:groupmode="layer"
     id="layer1">
    <path
       style="fill:#000000;stroke-width:0.00781278"
       d="m 63.00283,25.743995 c -0.780763,-0.05924 -1.535043,-0.37931 -2.136124,-0.906422 -0.509996,-0.44724 -0.882567,-1.031325 -1.083196,-1.698135 -0.03468,-0.115306 -0.03391,-0.132495 0.0065,-0.141811 0.02213,-0.0051 1.309555,-0.349376 1.547896,-0.41393 0.137272,-0.03716 0.151982,-0.03813 0.165277,-0.01054 0.0031,0.0062 0.01686,0.04811 0.03081,0.09323 0.120792,0.389913 0.391125,0.743443 0.747003,0.97689 0.206086,0.135187 0.459527,0.233725 0.713981,0.277591 0.099,0.01705 0.378546,0.02379 0.485365,0.0117 0.747867,-0.08479 1.366987,-0.604054 1.572813,-1.319139 0.05917,-0.205562 0.07465,-0.35279 0.07469,-0.710071 v -0.259115 l -0.159206,0.08144 c -0.549939,0.281315 -1.076515,0.409791 -1.680712,0.41007 -0.256956,1.17e-4 -0.408237,-0.01225 -0.636743,-0.05207 -1.564737,-0.272659 -2.783454,-1.546204 -2.987807,-3.122219 -0.02348,-0.180956 -0.02992,-0.317922 -0.02577,-0.54775 0.0056,-0.312602 0.03321,-0.526918 0.104784,-0.813914 0.06791,-0.27227 0.14021,-0.467246 0.272352,-0.734402 0.186741,-0.377539 0.390261,-0.659025 0.697833,-0.965183 0.234187,-0.233105 0.486203,-0.427388 0.754982,-0.582028 0.417076,-0.239965 0.89432,-0.397446 1.386769,-0.457617 0.164119,-0.02003 0.541313,-0.02848 0.699247,-0.01562 0.413352,0.03367 0.787303,0.123396 1.147657,0.275382 0.794488,0.335096 1.449835,0.945343 1.840518,1.713861 0.173086,0.340471 0.293145,0.712523 0.351895,1.090466 0.04371,0.281203 0.04168,0.179386 0.04483,2.249451 0.0031,1.934102 7.75e-4,2.120323 -0.02561,2.347744 -0.0476,0.408052 -0.160306,0.795159 -0.338979,1.164251 -0.192937,0.398562 -0.418983,0.712369 -0.740071,1.027416 -0.61378,0.602233 -1.417056,0.964842 -2.283747,1.030911 -0.119432,0.0091 -0.424744,0.0089 -0.547288,-3.87e-4 z m 0.539081,-5.433475 c 0.197866,-0.02937 0.372657,-0.08365 0.551721,-0.171385 0.559584,-0.274158 0.932853,-0.796135 1.019766,-1.42602 0.01465,-0.106021 0.01259,-0.364864 -0.0039,-0.477035 -0.02895,-0.198974 -0.08366,-0.375664 -0.172787,-0.558158 -0.197285,-0.40396 -0.528487,-0.715922 -0.945846,-0.890911 -0.35873,-0.150405 -0.772737,-0.181223 -1.152284,-0.08578 -0.687308,0.172845 -1.219933,0.730303 -1.358667,1.422017 -0.02631,0.131235 -0.03391,0.21253 -0.03391,0.363295 0,0.15089 0.0076,0.232308 0.03395,0.363295 0.160375,0.797422 0.824561,1.393408 1.640951,1.472451 0.09788,0.0095 0.319367,0.0031 0.420823,-0.01178 z M 4.2818646,22.13445 C 3.0473044,22.083816 1.9017717,21.388865 1.2818118,20.314441 0.6726996,19.258815 0.63112103,17.95759 1.171727,16.869297 c 0.4078288,-0.821 1.0885184,-1.446422 1.9382184,-1.780844 0.2952992,-0.116223 0.5907301,-0.189426 0.9375355,-0.232311 0.1435583,-0.01775 0.6223104,-0.02019 0.7695603,-0.0039 0.5983946,0.06615 1.1337696,0.25822 1.6426399,0.589321 0.077078,0.05015 0.095707,0.06581 0.095707,0.08043 0,0.01135 -0.1856704,0.283222 -0.496986,0.727656 -0.2733423,0.390227 -0.5024118,0.715655 -0.5090428,0.723173 -0.00663,0.0075 -0.017662,0.0136 -0.024517,0.01348 -0.00685,-1.01e-4 -0.047619,-0.02321 -0.090589,-0.05136 -0.3654059,-0.239329 -0.8497512,-0.33865 -1.2891114,-0.26435 -0.5912129,0.09998 -1.0889962,0.470838 -1.352099,1.007335 -0.1304775,0.266056 -0.1859186,0.50695 -0.1861022,0.808625 -1.81e-4,0.297353 0.057696,0.548552 0.1872085,0.81253 0.449772,0.916741 1.5673564,1.292463 2.4760353,0.832424 0.060159,-0.03046 0.1401839,-0.07577 0.1778344,-0.100692 0.03765,-0.02492 0.074566,-0.04417 0.082035,-0.04277 0.00771,0.0016 0.1613508,0.21356 0.3555118,0.490807 0.1880628,0.268543 0.4157082,0.593215 0.5058784,0.721491 0.1010896,0.143809 0.1639455,0.240293 0.1639455,0.251651 0,0.01473 -0.016012,0.02891 -0.080081,0.07096 -0.148655,0.09752 -0.2435031,0.151986 -0.4043122,0.232191 -0.5606905,0.279645 -1.1537267,0.405374 -1.7891299,0.379315 z m 5.3634839,0.0031 C 8.4644319,22.107287 7.3640743,21.497501 6.704396,20.507723 6.4251663,20.088771 6.2332637,19.607679 6.1492207,19.115927 c -0.041651,-0.243711 -0.050235,-0.351282 -0.050235,-0.629505 0,-0.271565 0.00855,-0.383852 0.046139,-0.605724 0.1512731,-0.892968 0.6153644,-1.680342 1.3260183,-2.249714 0.5312698,-0.425652 1.1746975,-0.691979 1.8695064,-0.773827 0.146058,-0.01721 0.519196,-0.02395 0.6759866,-0.01221 1.021573,0.07653 1.946437,0.566772 2.591305,1.373587 0.645294,0.807346 0.912239,1.857663 0.736241,2.896793 -0.08981,0.530269 -0.316477,1.066073 -0.640124,1.513161 -0.60079,0.829937 -1.524113,1.37039 -2.539159,1.486258 -0.142609,0.01628 -0.3752267,0.02647 -0.5195506,0.02278 z M 9.9978594,20.311 c 0.4151786,-0.05955 0.7808916,-0.245696 1.0694176,-0.544332 0.269808,-0.279261 0.440521,-0.62229 0.501048,-1.006801 0.02,-0.127035 0.02012,-0.422013 2.27e-4,-0.542988 -0.08138,-0.494906 -0.330822,-0.912633 -0.716817,-1.200431 -0.117466,-0.08758 -0.184485,-0.128202 -0.311823,-0.188997 -0.260444,-0.124349 -0.503921,-0.179355 -0.7929989,-0.179165 -0.198098,1.35e-4 -0.3517766,0.02236 -0.5326482,0.07701 -0.2974589,0.08989 -0.5395337,0.235489 -0.7649025,0.460058 -0.1903852,0.189706 -0.315479,0.377575 -0.4130202,0.620279 -0.09531,0.237151 -0.1349251,0.467157 -0.1272049,0.738541 0.00812,0.285453 0.070728,0.530269 0.2006028,0.784421 0.1442178,0.282217 0.3713408,0.532377 0.6417083,0.706796 0.2453868,0.158298 0.5382318,0.259239 0.831396,0.286573 0.099805,0.0093 0.3129427,0.0039 0.4150135,-0.01097 z m 7.5345056,1.823121 c -0.643086,-0.0253 -1.283992,-0.23199 -1.8321,-0.590837 -0.407954,-0.267085 -0.772587,-0.628412 -1.038857,-1.029442 -0.110906,-0.167037 -0.169711,-0.269562 -0.250946,-0.437517 -0.338158,-0.699155 -0.443555,-1.482096 -0.303422,-2.253993 0.1098,-0.604805 0.381317,-1.183618 0.783908,-1.671103 0.101738,-0.123187 0.342951,-0.365299 0.461647,-0.46336 0.572521,-0.472993 1.20515,-0.742958 1.949292,-0.831836 0.146737,-0.01751 0.630929,-0.02023 0.761748,-0.0043 0.244545,0.02984 0.410078,0.06076 0.594196,0.110949 0.861179,0.234742 1.605793,0.776524 2.096411,1.525357 0.702347,1.071998 0.790234,2.430542 0.23213,3.588252 -0.394158,0.817626 -1.094912,1.470083 -1.938498,1.8049 -0.481096,0.190942 -0.978872,0.274007 -1.515509,0.252892 z m 0.417984,-1.822962 c 0.3168,-0.04561 0.603344,-0.164766 0.863314,-0.358994 0.09577,-0.07155 0.277206,-0.253128 0.349932,-0.350201 0.191446,-0.255538 0.310197,-0.538717 0.358042,-0.853815 0.01961,-0.129162 0.01984,-0.393698 4.65e-4,-0.519552 -0.05172,-0.3357 -0.179064,-0.629098 -0.388392,-0.894839 -0.06986,-0.08868 -0.224662,-0.239763 -0.316442,-0.308828 -0.268977,-0.202408 -0.574369,-0.326246 -0.905973,-0.367379 -0.111779,-0.01387 -0.339884,-0.0119 -0.453142,0.0039 -0.404804,0.05648 -0.750568,0.225007 -1.040882,0.507329 -0.281076,0.273337 -0.456534,0.600233 -0.530479,0.988336 -0.02485,0.130426 -0.03439,0.398702 -0.01897,0.533045 0.08267,0.719863 0.571961,1.320278 1.261025,1.547421 0.106532,0.03511 0.286214,0.07289 0.399618,0.084 0.09897,0.0097 0.320046,0.0042 0.421891,-0.01042 z m 4.064092,1.821885 c -0.01246,-0.0092 -0.01326,-0.314269 -0.01324,-4.997408 0,-3.684512 0.0023,-4.990406 0.0088,-4.998234 0.01221,-0.01473 1.967254,-0.01593 1.981955,-0.0012 0.0073,0.0073 0.0094,1.127725 0.0094,4.995071 0,4.820137 -4.65e-4,4.986124 -0.01429,4.998625 -0.01314,0.0119 -0.09283,0.01294 -0.986826,0.01294 -0.765745,0 -0.975358,-0.0019 -0.985805,-0.0098 z m 3.259392,-0.0035 c -0.01178,-0.01364 -0.624012,-2.284217 -0.624012,-2.314253 0,-0.02089 0.013,-0.02902 0.06986,-0.04374 0.02768,-0.0072 0.110133,-0.03247 0.183234,-0.05624 0.532359,-0.173113 1.055887,-0.467751 1.457912,-0.820501 0.141314,-0.123994 0.382569,-0.365756 0.477879,-0.478876 0.570469,-0.677098 0.910983,-1.475431 1.003046,-2.35165 0.01674,-0.159307 0.02325,-0.535052 0.01225,-0.707061 -0.0595,-0.931168 -0.420262,-1.81866 -1.025796,-2.523531 -0.104598,-0.121761 -0.35308,-0.370584 -0.467394,-0.468037 -0.49266,-0.420009 -1.09447,-0.734638 -1.711535,-0.894812 -0.390562,-0.101378 -0.743074,-0.140912 -1.163571,-0.130492 -0.39603,0.0098 -0.626449,0.03743 -0.928966,0.111404 -0.06189,0.01515 -0.120727,0.02546 -0.130746,0.02294 -0.01153,-0.0031 -0.02007,-0.0124 -0.02328,-0.02592 -0.0028,-0.01174 -0.140407,-0.525881 -0.30583,-1.142505 -0.165425,-0.6166251 -0.302427,-1.1304921 -0.304449,-1.1419271 -0.0054,-0.03057 0.01424,-0.03948 0.168642,-0.07647 0.889042,-0.212967 1.793821,-0.24997 2.664224,-0.108966 0.05313,0.0086 0.0984,0.01383 0.100616,0.01162 0.0022,-0.0023 -0.0052,-0.06656 -0.01637,-0.143003 -0.06462,-0.440284 -0.08723,-0.822156 -0.07407,-1.250928 0.0439,-1.430778 0.567461,-2.848145 1.466564,-3.970271 0.313903,-0.391764 0.745461,-0.819943 1.112953,-1.104238 0.524561,-0.405804 1.040222,-0.702328 1.646997,-0.947086 0.26156,-0.10551 0.731406,-0.257585 0.778345,-0.251931 0.01089,0.0012 0.02263,0.0077 0.02604,0.01411 0.0055,0.01031 0.546285,2.024444 0.599431,2.232471 0.0181,0.07088 0.0191,0.08138 0.0088,0.09167 -0.0064,0.0064 -0.04848,0.02205 -0.09351,0.03476 -0.304604,0.08609 -0.655239,0.232943 -0.937384,0.392605 -0.126295,0.07147 -0.386394,0.244634 -0.496111,0.330296 -0.660196,0.515432 -1.134956,1.163975 -1.42149,1.941809 -0.104374,0.283345 -0.191636,0.646477 -0.22307,0.928312 -0.02813,0.252217 -0.02344,0.934466 0.0079,1.145987 0.085,0.574221 0.280773,1.124474 0.572616,1.6094331 0.664381,1.104018 1.799185,1.856068 3.07588,2.038426 0.201958,0.02883 0.294835,0.03631 0.515645,0.04132 0.401863,0.0091 0.749158,-0.03092 1.169451,-0.134955 0.06495,-0.01608 0.07578,-0.01178 0.08786,0.03472 0.0041,0.01562 0.141679,0.529383 0.305829,1.141714 0.164153,0.612327 0.299992,1.120451 0.301868,1.129166 0.0019,0.0091 -0.0027,0.0212 -0.01085,0.0284 -0.01682,0.0148 -0.245711,0.07069 -0.4713,0.115084 -0.767417,0.15101 -1.59282,0.164925 -2.35864,0.03976 -0.05326,-0.0087 -0.09755,-0.01488 -0.09842,-0.01368 -7.75e-4,0.0012 0.0048,0.0408 0.01259,0.08807 0.05318,0.322395 0.07759,0.61053 0.08275,0.976599 0.0063,0.448189 -0.01538,0.764601 -0.08003,1.168014 -0.2494,1.555817 -1.043245,2.983922 -2.234215,4.019275 -0.744151,0.646915 -1.596555,1.109093 -2.566504,1.391567 -0.132393,0.03856 -0.127626,0.03782 -0.141642,0.02158 z m 8.849003,0.0078 c -1.296931,-0.03232 -2.488768,-0.76565 -3.113166,-1.91549 -0.224306,-0.413058 -0.363291,-0.863905 -0.419599,-1.361102 -0.01903,-0.167897 -0.01903,-0.578777 4e-6,-0.747933 0.08439,-0.750693 0.361435,-1.404041 0.837183,-1.974294 0.350674,-0.420327 0.828162,-0.778317 1.328339,-0.995896 0.342168,-0.148848 0.685968,-0.241263 1.062542,-0.285624 0.146058,-0.0172 0.519195,-0.02395 0.675986,-0.01217 1.100809,0.08246 2.098256,0.652492 2.730838,1.560646 0.188438,0.270527 0.351193,0.593457 0.458078,0.908887 0.2545,0.751065 0.256701,1.573852 0.0062,2.328211 -0.06737,0.202916 -0.192476,0.480898 -0.30062,0.667996 -0.162809,0.281671 -0.346303,0.519284 -0.5855,0.758175 -0.232746,0.232451 -0.440118,0.394632 -0.711482,0.55645 -0.592522,0.353328 -1.270062,0.52958 -1.968825,0.512161 z m 0.351577,-1.826372 c 0.419301,-0.06019 0.779167,-0.243522 1.072304,-0.546281 0.334155,-0.345125 0.517599,-0.798212 0.517599,-1.278421 0,-0.854884 -0.587857,-1.595215 -1.423447,-1.792651 -0.2627,-0.06207 -0.56983,-0.06197 -0.833979,2.94e-4 -0.202664,0.04777 -0.432325,0.146825 -0.598125,0.257976 -0.379183,0.254205 -0.648652,0.629288 -0.76512,1.06498 -0.04473,0.167347 -0.0549,0.254298 -0.0549,0.469401 0,0.17352 0.0023,0.212161 0.01794,0.299489 0.07274,0.406335 0.249159,0.741493 0.537399,1.020972 0.308266,0.298892 0.687863,0.47338 1.120944,0.515265 0.09452,0.0091 0.309172,0.0035 0.40938,-0.01104 z m 4.064603,1.823245 c -0.01298,-0.0076 -0.01368,-0.253845 -0.01368,-4.998389 0,-3.871023 0.0019,-4.992525 0.0094,-4.999798 0.01364,-0.0136 1.967711,-0.0136 1.981328,0 0.0073,0.0073 0.0094,1.128802 0.0094,4.999911 0,4.926003 -1.94e-4,4.990646 -0.01511,4.998629 -0.02081,0.01116 -1.952138,0.01081 -1.971292,-3.53e-4 z m 6.162343,0.0035 c -0.830986,-0.03193 -1.591769,-0.326804 -2.242272,-0.869121 -0.100774,-0.08401 -0.347841,-0.333178 -0.434824,-0.438509 -0.69862,-0.846022 -0.983631,-1.927371 -0.790733,-3.000113 0.07495,-0.416785 0.238144,-0.848645 0.461066,-1.22012 0.284267,-0.473687 0.648736,-0.855664 1.108337,-1.161581 0.482692,-0.321286 0.991462,-0.508923 1.596659,-0.58886 0.17767,-0.02348 0.651887,-0.02569 0.829134,-0.0039 0.496747,0.06109 0.951151,0.20588 1.365282,0.435022 l 0.07227,0.03999 v -1.589666 c 0,-1.434735 0.0012,-1.590864 0.01228,-1.601946 0.011,-0.01101 0.103172,-0.01228 0.897516,-0.01228 0.740993,0 0.886686,0.0019 0.894138,0.01073 0.01279,0.01542 0.0075,6.586229 -0.0054,6.692649 -0.03991,0.329291 -0.08814,0.551784 -0.176988,0.81644 -0.148665,0.44281 -0.371715,0.840384 -0.675017,1.203168 -0.07584,0.09071 -0.336258,0.351131 -0.426969,0.426973 -0.649387,0.54291 -1.439977,0.840547 -2.285246,0.860329 -0.0752,0.0019 -0.164847,0.0023 -0.199223,7.75e-4 z m 0.398453,-1.830514 c 0.38403,-0.05739 0.724648,-0.226561 1.00611,-0.499684 0.288813,-0.280265 0.466727,-0.618055 0.537485,-1.02048 0.02096,-0.119312 0.02875,-0.355928 0.01577,-0.481324 -0.0756,-0.731806 -0.578974,-1.353251 -1.274215,-1.573089 -0.187125,-0.05917 -0.35308,-0.08448 -0.554709,-0.0846 -0.297295,-1.7e-4 -0.544464,0.05649 -0.808624,0.185358 -0.916167,0.446941 -1.295539,1.547789 -0.84828,2.461485 0.09464,0.193328 0.195409,0.332953 0.355448,0.492484 0.212017,0.211344 0.431231,0.34824 0.706338,0.44111 0.158341,0.05345 0.27398,0.07712 0.47402,0.09702 0.06755,0.0067 0.294354,-0.0039 0.39064,-0.01829 z m 4.03977,1.823156 c -0.01112,-0.01112 -0.01228,-0.352825 -0.01228,-3.643712 0,-3.061051 0.0015,-3.632826 0.01069,-3.640297 0.01267,-0.0105 1.972591,-0.01298 1.983077,-0.0027 0.0035,0.0035 0.0064,1.642759 0.0064,3.642805 0,3.41138 -7.75e-4,3.637054 -0.01321,3.646215 -0.01042,0.0077 -0.220454,0.0098 -0.987813,0.0098 -0.875537,0 -0.975796,-0.0012 -0.986828,-0.01228 z m 2.649192,-0.0019 c -0.01193,-0.01321 -0.01294,-0.154389 -0.0129,-1.873116 0,-1.198157 0.0031,-1.904651 0.0082,-1.987744 0.05661,-0.898408 0.426825,-1.722711 1.058167,-2.356033 0.604065,-0.605965 1.357501,-0.964497 2.226734,-1.059617 0.146634,-0.01604 0.618526,-0.01352 0.761747,0.0041 0.449905,0.05532 0.82262,0.164181 1.207076,0.352573 0.58235,0.285364 1.069064,0.712431 1.429402,1.254217 0.358773,0.539446 0.558387,1.12273 0.605596,1.769599 0.0051,0.07001 0.008,0.788947 0.008,1.997567 0,1.706141 -0.0012,1.889368 -0.01225,1.900462 -0.011,0.01101 -0.102413,0.01228 -0.889166,0.01228 -0.744961,0 -0.879168,-0.0016 -0.892052,-0.01108 -0.01492,-0.01093 -0.01523,-0.04217 -0.01945,-1.939527 l -0.0043,-1.92844 -0.01686,-0.08594 c -0.05227,-0.26631 -0.147591,-0.504686 -0.282713,-0.707021 -0.198921,-0.297873 -0.486699,-0.53845 -0.806954,-0.674599 -0.239112,-0.101653 -0.462848,-0.147611 -0.720889,-0.14808 -0.295621,-3.87e-4 -0.551229,0.05778 -0.812855,0.185443 -0.567652,0.276999 -0.949411,0.816685 -1.02306,1.446287 -0.01023,0.08746 -0.01182,0.351546 -0.01182,1.969058 0,1.799808 -3.87e-4,1.868517 -0.0143,1.880975 -0.01314,0.01186 -0.08634,0.01294 -0.893355,0.01294 -0.841701,0 -0.879614,-7.75e-4 -0.891995,-0.0143 z M 49.14188,14.120465 c -0.01411,-0.0099 -0.01457,-0.04265 -0.01457,-0.992615 0,-0.753676 0.0023,-0.984589 0.0094,-0.991781 0.01461,-0.01461 1.969735,-0.01352 1.981875,0.0012 0.0105,0.01263 0.01302,1.972906 0.0027,1.983357 -0.0035,0.0035 -0.447096,0.0073 -0.98558,0.0083 -0.79553,0.0015 -0.981799,-1.09e-4 -0.993645,-0.0084 z"
       id="path214" />
  </g>
</svg>
