<?xml version="1.0" encoding="UTF-8" standalone="no"?>
<svg
   xmlns:dc="http://purl.org/dc/elements/1.1/"
   xmlns:cc="http://creativecommons.org/ns#"
   xmlns:rdf="http://www.w3.org/1999/02/22-rdf-syntax-ns#"
   xmlns:svg="http://www.w3.org/2000/svg"
   xmlns="http://www.w3.org/2000/svg"
   xmlns:sodipodi="http://sodipodi.sourceforge.net/DTD/sodipodi-0.dtd"
   xmlns:inkscape="http://www.inkscape.org/namespaces/inkscape"
   inkscape:version="1.0 (4035a4fb49, 2020-05-01)"
   sodipodi:docname="pinned-octocatnn.svg"
   xml:space="preserve"
   enable-background="new 0 0 36 36"
   viewBox="0 0 36 36"
   y="0px"
   x="0px"
   id="Layer_1"
   version="1.1"><metadata
   id="metadata9"><rdf:RDF><cc:Work
       rdf:about=""><dc:format>image/svg+xml</dc:format><dc:type
         rdf:resource="http://purl.org/dc/dcmitype/StillImage" /><dc:title></dc:title></cc:Work></rdf:RDF></metadata><defs
   id="defs7" /><sodipodi:namedview
   inkscape:current-layer="Layer_1"
   inkscape:window-maximized="1"
   inkscape:window-y="-8"
   inkscape:window-x="-8"
   inkscape:cy="13.784565"
   inkscape:cx="30.062116"
   inkscape:zoom="16.675935"
   inkscape:pagecheckerboard="true"
   showgrid="false"
   id="namedview5"
   inkscape:window-height="1017"
   inkscape:window-width="1920"
   inkscape:pageshadow="2"
   inkscape:pageopacity="0"
   guidetolerance="10"
   gridtolerance="10"
   objecttolerance="10"
   borderopacity="1"
   bordercolor="#666666"
   pagecolor="#ffffff" />

<g
   id="g2003"
   inkscape:label="0"
   transform="matrix(0.20468156,0,0,0.20468156,18.709595,-211.58918)"><path
     id="path1983"
     style="fill:none;stroke:#000000;stroke-width:0.9;stroke-linecap:round"
     d="m -16.965573,1204.619 a 53.525306,53.525306 0 0 0 38.074844,-60.2677" /><path
     id="path1985"
     style="fill:none;stroke:#000000;stroke-width:0.9;stroke-linecap:round"
     d="m 21.109271,1144.3513 a 53.525306,53.525306 0 0 0 25.29835,-1.0086" /><path
     id="path1987"
     style="fill:none;stroke:#000000;stroke-width:0.9;stroke-linecap:round"
     d="m 46.407621,1143.3427 -5.197403,-18.1689" /><path
     id="path1989"
     style="fill:none;stroke:#000000;stroke-width:0.9;stroke-linecap:round"
     d="m 22.162976,1058.5893 a 34.627668,34.627668 0 0 0 19.047242,66.5845" /><path
     id="path1991"
     style="fill:none;stroke:#000000;stroke-width:0.9;stroke-linecap:round"
     d="m 22.162976,1058.5893 -5.197403,-18.1689" /><path
     id="path1993"
     style="fill:none;stroke:#000000;stroke-width:0.9;stroke-linecap:round"
     d="m 16.965573,1040.4204 a 53.525306,53.525306 0 0 0 -38.074844,60.2676" /><path
     id="path1995"
     style="fill:none;stroke:#000000;stroke-width:0.9;stroke-linecap:round"
     d="m -21.109271,1100.688 a 53.525306,53.525306 0 0 0 -25.29835,1.0087" /><path
     id="path1997"
     style="fill:none;stroke:#000000;stroke-width:0.9;stroke-linecap:round"
     d="m -46.407621,1101.6967 5.197403,18.1689" /><path
     id="path1999"
     style="fill:none;stroke:#000000;stroke-width:0.9;stroke-linecap:round"
     d="m -22.162976,1186.4501 a 34.627668,34.627668 0 0 0 -19.047242,-66.5845" /><path
     id="path2001"
     style="fill:none;stroke:#000000;stroke-width:0.9;stroke-linecap:round"
     d="m -22.162976,1186.4501 5.197403,18.1689" /></g><path
   id="path1433"
   d="m 21.999998,1.3694772 c -0.920134,0.1914015 -1.744167,0.6978987 -2.560061,1.1465109 -1.297755,0.7946882 -2.410938,1.8857409 -3.307887,3.1100673 -1.539648,2.2825774 -2.277263,5.1302716 -1.849011,7.8661726 0.0339,0.21291 -0.318913,0.01388 -0.464156,0.02998 -1.455903,-0.12918 -2.966352,-0.170976 -4.3773314,0.26739 -0.4137692,0.211571 -0.073238,0.720271 -0.035078,1.045816 0.2582596,0.907466 0.4870045,1.835081 0.7915714,2.721734 0.25594,0.208438 0.639971,-0.04187 0.952205,-0.03427 1.780112,-0.230283 3.698574,0.122858 5.154204,1.23119 1.687043,1.222442 2.797813,3.147845 2.886715,5.238884 0.176367,2.386081 -0.964228,4.846361 -2.959917,6.19671 -0.605267,0.435522 -1.304846,0.73206 -1.995648,0.981369 -0.216615,0.284178 0.09242,0.648225 0.112866,0.957024 0.279488,0.893877 0.456417,1.828427 0.816383,2.69286 0.249716,0.33921 0.690286,-0.01255 0.994632,-0.08403 2.84813,-1.090416 5.189516,-3.401134 6.310928,-6.2377 0.741729,-1.810222 0.900883,-3.812829 0.673987,-5.743393 1.639415,0.227064 3.349251,0.256704 4.944438,-0.234831 0.269665,-0.248342 -0.03978,-0.635401 -0.05828,-0.936273 -0.265977,-0.923603 -0.474181,-1.872214 -0.812523,-2.770533 -0.327756,-0.230968 -0.760729,0.04069 -1.119691,0.02776 -1.434477,0.150091 -2.929167,-0.0555 -4.20866,-0.768961 C 20.068089,17.072957 18.67318,15.256015 18.326689,13.198602 17.834652,10.712016 18.827551,7.9688003 20.857,6.3901617 21.546023,5.8178523 22.38626,5.4719666 23.201828,5.1427894 23.39971,4.8511202 23.077453,4.4612416 23.050186,4.1340342 22.785425,3.2494118 22.571441,2.3451942 22.251459,1.479338 22.197184,1.3966591 22.094658,1.3642205 21.999998,1.3694772 Z"
   style="opacity:1;fill:#000000;stroke-width:0.0599667" /></svg>
