
<svg xmlns="http://www.w3.org/2000/svg" viewBox="0 0 67.733 26.458"><path d="M63.003 25.744a3.677 3.677 0 01-2.136-.906 3.64 3.64 0 01-1.083-1.699c-.035-.115-.034-.132.006-.141l1.548-.414c.137-.037.152-.038.165-.01.003.005.017.047.031.092a1.842 1.842 0 001.461 1.255c.099.017.379.024.485.012a1.846 1.846 0 001.573-1.32c.06-.205.075-.352.075-.71v-.259l-.16.082c-.55.281-1.076.41-1.68.41-.257 0-.408-.012-.637-.052a3.657 3.657 0 01-2.988-3.123 3.344 3.344 0 01-.025-.547 3.28 3.28 0 01.104-.814 3.31 3.31 0 01.273-.735 3.41 3.41 0 01.698-.965c.234-.233.486-.427.755-.582.417-.24.894-.397 1.386-.457.164-.02.542-.029.7-.016.413.034.787.123 1.147.275a3.66 3.66 0 012.192 2.804c.044.282.042.18.045 2.25.004 1.934.001 2.12-.025 2.348a3.61 3.61 0 01-.34 1.164 3.526 3.526 0 01-.74 1.028 3.642 3.642 0 01-2.283 1.03c-.12.01-.425.01-.547 0zm.539-5.433c.198-.03.373-.084.552-.172.56-.274.932-.796 1.02-1.426a2.446 2.446 0 00-.005-.477 1.837 1.837 0 00-.172-.558 1.832 1.832 0 00-2.098-.977 1.85 1.85 0 00-1.36 1.422 1.588 1.588 0 00-.033.364c0 .15.008.232.034.363.16.797.825 1.393 1.64 1.472.099.01.32.003.422-.011zm-59.26 1.823a3.661 3.661 0 01-3-1.82 3.659 3.659 0 01-.11-3.445 3.637 3.637 0 011.938-1.78c.295-.117.59-.19.937-.233.144-.018.623-.02.77-.004a3.683 3.683 0 011.643.59c.077.05.095.065.095.08 0 .011-.185.283-.497.728-.273.39-.502.715-.509.723-.006.007-.017.013-.024.013a.492.492 0 01-.09-.051 1.838 1.838 0 00-2.641.743c-.131.266-.187.507-.187.809a1.84 1.84 0 002.841 1.544.276.276 0 01.082-.043c.008.002.161.214.356.49l.505.722c.102.144.164.24.164.252 0 .015-.016.029-.08.071a3.443 3.443 0 01-.404.232c-.56.28-1.154.406-1.79.38zm5.363.004a3.656 3.656 0 01-3.496-3.022 3.007 3.007 0 01-.05-.63c0-.271.009-.383.046-.605a3.66 3.66 0 013.196-3.024c.146-.017.519-.024.676-.012a3.65 3.65 0 01-.371 7.293zm.353-1.827c.415-.06.78-.246 1.07-.544.27-.28.44-.623.5-1.007.02-.127.02-.422 0-.543a1.84 1.84 0 00-1.028-1.39 1.748 1.748 0 00-.793-.179c-.198 0-.352.023-.533.077a1.77 1.77 0 00-.765.46c-.19.19-.315.378-.413.62a1.764 1.764 0 00-.127.74c.008.285.07.53.2.784.145.282.372.532.642.706.246.159.539.26.832.287.1.01.313.004.415-.011zm7.534 1.823a3.629 3.629 0 01-1.832-.59 3.695 3.695 0 01-1.29-1.468 3.655 3.655 0 01.48-3.925 4.8 4.8 0 01.463-.463 3.638 3.638 0 011.949-.832c.147-.017.63-.02.762-.004a3.654 3.654 0 01.984 7.03c-.481.19-.979.273-1.516.252zm.418-1.823c.317-.045.604-.165.864-.359.095-.071.277-.253.35-.35.191-.256.31-.539.358-.854.02-.129.02-.394 0-.52a1.872 1.872 0 00-.388-.894 2.226 2.226 0 00-.317-.31 1.874 1.874 0 00-.906-.366 1.813 1.813 0 00-1.494.511c-.28.273-.456.6-.53.988-.025.13-.035.399-.02.533a1.846 1.846 0 001.661 1.632c.1.01.32.004.422-.01zm4.064 1.822c-.012-.01-.013-.314-.013-4.997 0-3.685.003-4.99.009-4.999a44.45 44.45 0 011.982 0c.007.007.01 1.127.01 4.994 0 4.82-.001 4.986-.015 4.999-.013.012-.093.013-.987.013-.766 0-.975-.002-.986-.01zm3.26-.003c-.012-.014-.624-2.285-.624-2.315 0-.02.013-.029.07-.043a4.272 4.272 0 001.641-.877c.141-.124.382-.366.478-.48a4.302 4.302 0 001.003-2.35c.016-.16.023-.536.012-.708a4.296 4.296 0 00-1.026-2.523 6.067 6.067 0 00-.467-.468 4.373 4.373 0 00-1.712-.895 4.014 4.014 0 00-1.163-.13c-.396.01-.627.037-.93.11a.633.633 0 01-.13.024c-.012-.003-.02-.013-.023-.026l-.306-1.143c-.166-.616-.303-1.13-.305-1.142-.005-.03.015-.04.17-.076a6.781 6.781 0 012.663-.11.597.597 0 00.1.013 1.206 1.206 0 00-.015-.143 6.738 6.738 0 011.392-5.221c.314-.392.746-.82 1.113-1.105a6.696 6.696 0 011.647-.947c.262-.106.731-.258.778-.252.011.001.023.008.026.014.006.01.547 2.025.6 2.233.018.07.019.081.009.091a.405.405 0 01-.094.035 4.512 4.512 0 00-.937.393 4.314 4.314 0 00-2.14 3.2c-.03.252-.024.935.007 1.146a4.37 4.37 0 00.573 1.61 4.31 4.31 0 004.76 1.944c.065-.016.076-.011.088.035a1942.604 1942.604 0 00.608 2.27c.002.01-.003.022-.01.03-.018.014-.246.07-.472.114a6.77 6.77 0 01-2.359.04 1.065 1.065 0 00-.098-.014l.012.089c.054.322.078.61.083.976.007.448-.015.765-.08 1.168a6.754 6.754 0 01-2.234 4.02 6.718 6.718 0 01-2.567 1.391c-.132.039-.127.038-.141.022zm8.849.007a3.66 3.66 0 01-3.113-1.915 3.683 3.683 0 01-.42-1.361 4.906 4.906 0 010-.748 3.64 3.64 0 01.837-1.974c.35-.42.828-.779 1.329-.996a3.694 3.694 0 011.062-.286c.146-.017.52-.024.676-.012a3.652 3.652 0 012.895 5.466c-.163.281-.347.519-.586.758-.233.232-.44.394-.711.556a3.65 3.65 0 01-1.97.512zm.351-1.826c.42-.06.78-.244 1.073-.546a1.842 1.842 0 00-1.74-3.07 1.855 1.855 0 00-1.363 1.323 1.493 1.493 0 00-.055.468c0 .174.002.212.018.3.072.406.249.741.537 1.02a1.83 1.83 0 001.121.516c.095.01.31.003.41-.011zm4.065 1.823c-.013-.007-.014-.254-.014-4.998 0-3.871.002-4.993.01-5a48.114 48.114 0 011.981 0c.007.007.01 1.129.01 5 0 4.926 0 4.99-.016 4.999-.02.01-1.952.01-1.97 0zm6.162.004a3.664 3.664 0 01-2.242-.87 5.13 5.13 0 01-.435-.438 3.66 3.66 0 01-.79-3 3.7 3.7 0 01.46-1.22 3.586 3.586 0 011.109-1.162 3.64 3.64 0 011.597-.589 5.07 5.07 0 01.829-.003 3.73 3.73 0 011.365.435l.072.04v-1.59c0-1.435.001-1.591.013-1.602.01-.011.103-.012.897-.012.741 0 .887.002.894.01.013.016.008 6.587-.005 6.693-.04.33-.088.552-.177.816-.149.443-.372.84-.675 1.204-.076.09-.336.35-.427.427a3.663 3.663 0 01-2.485.86zm.399-1.83a1.806 1.806 0 001.006-.5c.289-.28.467-.619.537-1.021.021-.12.03-.356.016-.481a1.85 1.85 0 00-1.274-1.573 1.744 1.744 0 00-.555-.085 1.838 1.838 0 00-.595 3.58c.158.054.274.078.474.097a2.58 2.58 0 00.39-.018zm4.04 1.822c-.012-.01-.013-.352-.013-3.643 0-3.061.002-3.633.011-3.64.013-.011 1.973-.014 1.983-.003.004.003.006 1.642.006 3.642 0 3.412 0 3.638-.013 3.647-.01.007-.22.01-.988.01-.875 0-.975-.002-.986-.013zm2.649-.002c-.012-.013-.013-.154-.013-1.873 0-1.198.003-1.904.008-1.987a3.632 3.632 0 011.058-2.356 3.632 3.632 0 012.227-1.06 5.75 5.75 0 01.762.004c.45.055.822.164 1.207.353.582.285 1.069.712 1.43 1.254a3.6 3.6 0 01.605 1.77c.005.07.008.788.008 1.997 0 1.706-.001 1.89-.012 1.9-.011.011-.103.013-.89.013-.745 0-.879-.002-.892-.011-.015-.011-.015-.043-.02-1.94l-.003-1.928-.017-.086a1.937 1.937 0 00-.283-.707 1.864 1.864 0 00-.807-.675 1.773 1.773 0 00-.72-.148A1.837 1.837 0 0053.6 18.28c-.011.087-.013.351-.013 1.969 0 1.8 0 1.868-.014 1.88-.013.013-.086.014-.893.014-.842 0-.88-.001-.892-.015zm-2.647-8.008c-.014-.01-.015-.042-.015-.992 0-.754.003-.985.01-.992.014-.015 1.97-.013 1.982.001.01.013.013 1.973.002 1.984-.003.003-.447.007-.985.008-.796.001-.982 0-.994-.008z"/></svg>
