<?xml version="1.0" encoding="UTF-8" standalone="no"?>
<svg
   xmlns:dc="http://purl.org/dc/elements/1.1/"
   xmlns:cc="http://creativecommons.org/ns#"
   xmlns:rdf="http://www.w3.org/1999/02/22-rdf-syntax-ns#"
   xmlns:svg="http://www.w3.org/2000/svg"
   xmlns="http://www.w3.org/2000/svg"
   xmlns:sodipodi="http://sodipodi.sourceforge.net/DTD/sodipodi-0.dtd"
   xmlns:inkscape="http://www.inkscape.org/namespaces/inkscape"
   inkscape:version="1.0 (4035a4fb49, 2020-05-01)"
   sodipodi:docname="酷z f.svg"
   xml:space="preserve"
   enable-background="new 0 0 64 64"
   viewBox="0 0 256 128"
   y="0px"
   x="0px"
   id="Layer_1"
   version="1.1"
   inkscape:export-filename="C:\Users\YDL\CF酷福鼎.png"
   inkscape:export-xdpi="600"
   inkscape:export-ydpi="600"><metadata
   id="metadata9"><rdf:RDF><cc:Work
       rdf:about=""><dc:format>image/svg+xml</dc:format><dc:type
         rdf:resource="http://purl.org/dc/dcmitype/StillImage" /><dc:title /></cc:Work></rdf:RDF></metadata><defs
   id="defs7" /><sodipodi:namedview
   borderlayer="true"
   showborder="true"
   fit-margin-bottom="0"
   fit-margin-right="0"
   fit-margin-left="0"
   fit-margin-top="0"
   scale-x="1"
   viewbox-x="0"
   lock-margins="false"
   inkscape:current-layer="g26"
   inkscape:window-maximized="1"
   inkscape:window-y="-9"
   inkscape:window-x="-9"
   inkscape:cy="43.479773"
   inkscape:cx="194.89696"
   inkscape:zoom="2.5625"
   inkscape:pagecheckerboard="true"
   showgrid="false"
   id="namedview5"
   inkscape:window-height="1001"
   inkscape:window-width="1920"
   inkscape:pageshadow="2"
   inkscape:pageopacity="0"
   guidetolerance="10"
   gridtolerance="10"
   objecttolerance="10"
   borderopacity="1"
   bordercolor="#666666"
   pagecolor="#ffffff"
   inkscape:document-rotation="0" />

<g
   id="g18"
   transform="matrix(0.06741663,0,0,0.06741663,12.713976,8.7689944)"><g
     id="g59"
     transform="matrix(5.5613691,0,0,5.5613691,20.026395,399.1962)"><g
       id="g69"
       transform="translate(-5.9489094,-1.1897819)"><g
         id="g26"
         transform="translate(-0.52042407)"><g
           id="g75"
           transform="translate(4.0788338,39.838551)"><g
             style="font-style:italic;font-variant:normal;font-weight:bold;font-stretch:normal;font-size:64px;line-height:0;font-family:sans-serif;-inkscape-font-specification:'sans-serif Bold Italic';fill:#000000;fill-opacity:1;stroke:none"
             id="text9"
             aria-label="
Cool   olding



"><path
               id="path20"
               style="font-style:italic;font-variant:normal;font-weight:900;font-stretch:normal;font-size:177.998px;line-height:1.05;font-family:'Source Sans Pro';-inkscape-font-specification:'Source Sans Pro Heavy Italic';text-align:center;text-anchor:middle"
               d="m 25.750475,125.01418 q -6.763905,0 -12.34116,-2.13597 -5.5772549,-2.25463 -9.4931999,-6.40791 -3.91594504878,-4.15327 -6.1705801,-10.20519 -2.13597,-6.17058 -2.13597,-14.002469 0,-10.323855 3.203955,-18.9864 3.3226201,-8.662545 9.0185401,-14.95179 5.6959199,-6.289245 13.1718149,-9.73053 7.59456,-3.55995 16.13844,-3.55995 6.763905,0 12.222495,3.32262 5.45859,3.203955 8.899876,9.25587 l -12.815821,9.96786 q -4.153275,-6.17058 -9.25587,-6.17058 -4.153275,0 -8.06922,2.3733 -3.79728,2.254635 -6.763905,6.289245 -2.84796,3.915945 -4.627935,9.374535 -1.66131,5.45859 -1.66131,11.62917 0,8.425215 3.441285,13.053149 3.441285,4.50927 11.273175,4.50927 3.08529,0 6.051915,-1.54264 3.08529,-1.54265 5.814585,-3.91595 l 7.83189,12.10383 q -1.66131,1.54265 -4.03461,3.32262 -2.3733,1.66131 -5.45859,3.08529 -2.966625,1.42398 -6.64524,2.3733 -3.55995,0.94932 -7.59456,0.94932 z" /><path
               id="path22"
               style="font-style:italic;font-variant:normal;font-weight:900;font-stretch:normal;font-size:118.665px;line-height:1.05;font-family:'Source Sans Pro';-inkscape-font-specification:'Source Sans Pro Heavy Italic';text-align:center;text-anchor:middle"
               d="m 83.922286,125.01418 q -5.339925,0 -9.73053,-1.77997 -4.390605,-1.77998 -7.475895,-4.98393 -3.08529,-3.32262 -4.865265,-7.83189 -1.66131,-4.50927 -1.66131,-10.08653 0,-8.662544 2.966625,-15.545114 2.966625,-7.001235 7.713225,-11.8665 4.865265,-4.865265 10.798515,-7.475895 6.051916,-2.61063 12.222496,-2.61063 5.339925,0 9.730533,1.779975 4.3906,1.779975 7.47589,5.102595 3.08529,3.203955 4.7466,7.83189 1.77998,4.50927 1.77998,9.96786 0,8.662545 -2.96663,15.663779 -2.96662,6.88257 -7.83189,11.74784 -4.7466,4.86526 -10.798513,7.47589 -5.93325,2.61063 -12.103831,2.61063 z m 2.135971,-15.18912 q 2.61063,0 4.865265,-1.66131 2.254635,-1.66131 3.915945,-4.50927 1.66131,-2.96662 2.61063,-7.001234 0.94932,-4.03461 0.94932,-8.899875 0,-4.50927 -1.66131,-7.1199 -1.542645,-2.61063 -4.98393,-2.61063 -2.61063,0 -4.865265,1.66131 -2.254635,1.66131 -3.915946,4.627935 -1.66131,2.84796 -2.61063,7.001235 -0.94932,4.03461 -0.94932,8.781209 0,4.50927 1.542645,7.1199 1.66131,2.61063 5.102596,2.61063 z" /><path
               id="path24"
               style="font-style:italic;font-variant:normal;font-weight:900;font-stretch:normal;font-size:118.665px;line-height:1.05;font-family:'Source Sans Pro';-inkscape-font-specification:'Source Sans Pro Heavy Italic';text-align:center;text-anchor:middle"
               d="m 147.89014,125.01418 q -5.33992,0 -9.73053,-1.77997 -4.3906,-1.77998 -7.47589,-4.98393 -3.08529,-3.32262 -4.86527,-7.83189 -1.66131,-4.50927 -1.66131,-10.08653 0,-8.662544 2.96663,-15.545114 2.96662,-7.001235 7.71322,-11.8665 4.86527,-4.865265 10.79852,-7.475895 6.05191,-2.61063 12.22249,-2.61063 5.33993,0 9.73053,1.779975 4.39061,1.779975 7.4759,5.102595 3.08529,3.203955 4.7466,7.83189 1.77997,4.50927 1.77997,9.96786 0,8.662545 -2.96662,15.663779 -2.96663,6.88257 -7.83189,11.74784 -4.7466,4.86526 -10.79852,7.47589 -5.93325,2.61063 -12.10383,2.61063 z m 2.13597,-15.18912 q 2.61063,0 4.86527,-1.66131 2.25463,-1.66131 3.91594,-4.50927 1.66131,-2.96662 2.61063,-7.001234 0.94932,-4.03461 0.94932,-8.899875 0,-4.50927 -1.66131,-7.1199 -1.54264,-2.61063 -4.98393,-2.61063 -2.61063,0 -4.86526,1.66131 -2.25464,1.66131 -3.91595,4.627935 -1.66131,2.84796 -2.61063,7.001235 -0.94932,4.03461 -0.94932,8.781209 0,4.50927 1.54265,7.1199 1.66131,2.61063 5.10259,2.61063 z" /><path
               id="path26"
               style="font-style:italic;font-variant:normal;font-weight:900;font-stretch:normal;font-size:118.665px;line-height:1.05;font-family:'Source Sans Pro';-inkscape-font-specification:'Source Sans Pro Heavy Italic';text-align:center;text-anchor:middle"
               d="m 202.60212,125.01418 q -7.35723,0 -10.44252,-3.44128 -3.08529,-3.55995 -3.08529,-9.61187 0,-1.77997 0.11867,-3.67861 0.23733,-1.89864 0.83065,-4.39061 l 12.57849,-62.892449 h 18.9864 L 208.7727,104.6038 q -0.23733,0.94932 -0.23733,1.42398 0,0.356 0,0.83066 0,1.66131 0.71199,2.3733 0.71199,0.59332 1.66131,0.59332 0.59333,0 0.94932,0 0.47466,0 1.18665,-0.23733 l -0.71199,14.00247 q -1.66131,0.59333 -4.15327,0.94932 -2.3733,0.47466 -5.57726,0.47466 z" /><path
               id="path28"
               style="font-style:italic;font-variant:normal;font-weight:900;font-stretch:normal;font-size:118.665px;line-height:1.05;font-family:'Source Sans Pro';-inkscape-font-specification:'Source Sans Pro Heavy Italic';text-align:center;text-anchor:middle"
               d="m 316.61694,125.01418 q -5.33993,0 -9.73053,-1.77997 -4.39061,-1.77998 -7.4759,-4.98393 -3.08529,-3.32262 -4.86526,-7.83189 -1.66131,-4.50927 -1.66131,-10.08653 0,-8.662544 2.96662,-15.545114 2.96663,-7.001235 7.71323,-11.8665 4.86526,-4.865265 10.79851,-7.475895 6.05192,-2.61063 12.2225,-2.61063 5.33992,0 9.73053,1.779975 4.3906,1.779975 7.47589,5.102595 3.08529,3.203955 4.7466,7.83189 1.77998,4.50927 1.77998,9.96786 0,8.662545 -2.96663,15.663779 -2.96662,6.88257 -7.83189,11.74784 -4.7466,4.86526 -10.79851,7.47589 -5.93325,2.61063 -12.10383,2.61063 z m 2.13597,-15.18912 q 2.61063,0 4.86526,-1.66131 2.25464,-1.66131 3.91595,-4.50927 1.66131,-2.96662 2.61063,-7.001234 0.94932,-4.03461 0.94932,-8.899875 0,-4.50927 -1.66131,-7.1199 -1.54265,-2.61063 -4.98393,-2.61063 -2.61063,0 -4.86527,1.66131 -2.25463,1.66131 -3.91594,4.627935 -1.66131,2.84796 -2.61063,7.001235 -0.94932,4.03461 -0.94932,8.781209 0,4.50927 1.54264,7.1199 1.66131,2.61063 5.1026,2.61063 z" /><path
               id="path30"
               style="font-style:italic;font-variant:normal;font-weight:900;font-stretch:normal;font-size:118.665px;line-height:1.05;font-family:'Source Sans Pro';-inkscape-font-specification:'Source Sans Pro Heavy Italic';text-align:center;text-anchor:middle"
               d="m 371.32893,125.01418 q -7.35723,0 -10.44252,-3.44128 -3.08529,-3.55995 -3.08529,-9.61187 0,-1.77997 0.11867,-3.67861 0.23733,-1.89864 0.83065,-4.39061 l 12.57849,-62.892449 h 18.9864 L 377.49951,104.6038 q -0.23733,0.94932 -0.23733,1.42398 0,0.356 0,0.83066 0,1.66131 0.71199,2.3733 0.71199,0.59332 1.66131,0.59332 0.59333,0 0.94932,0 0.47466,0 1.18665,-0.23733 l -0.71199,14.00247 q -1.66131,0.59333 -4.15327,0.94932 -2.3733,0.47466 -5.57726,0.47466 z" /><path
               id="path32"
               style="font-style:italic;font-variant:normal;font-weight:900;font-stretch:normal;font-size:118.665px;line-height:1.05;font-family:'Source Sans Pro';-inkscape-font-specification:'Source Sans Pro Heavy Italic';text-align:center;text-anchor:middle"
               d="m 435.30791,58.324451 3.32262,-17.32509 h 18.9864 l -16.6131,82.590839 h -15.42645 v -7.35723 h -0.23733 q -3.91594,4.15328 -8.78121,6.52658 -4.7466,2.25463 -9.01854,2.25463 -7.83189,0 -12.22249,-5.57725 -4.39061,-5.69592 -4.39061,-16.25711 0,-8.425214 2.61063,-15.782444 2.61063,-7.35723 7.00124,-12.81582 4.3906,-5.45859 10.08652,-8.54388 5.69592,-3.203955 11.8665,-3.203955 3.79728,0 6.76391,1.779975 2.96662,1.779975 4.62793,4.865265 h 0.23733 z m -19.22373,51.263279 q 2.25464,0 5.1026,-1.42398 2.84796,-1.54264 5.33992,-6.40791 l 3.79728,-18.986399 q -1.06798,-2.3733 -2.96662,-3.441285 -1.77998,-1.067985 -3.44129,-1.067985 -2.61063,0 -4.98393,1.66131 -2.3733,1.66131 -4.27194,4.627935 -1.77997,2.966625 -2.96662,7.1199 -1.06799,4.153275 -1.06799,9.137204 0,4.62794 1.42398,6.76391 1.54265,2.0173 4.03461,2.0173 z" /><path
               id="path34"
               style="font-style:italic;font-variant:normal;font-weight:900;font-stretch:normal;font-size:118.665px;line-height:1.05;font-family:'Source Sans Pro';-inkscape-font-specification:'Source Sans Pro Heavy Italic';text-align:center;text-anchor:middle"
               d="m 465.77886,64.257701 h 18.9864 l -11.8665,59.332499 h -18.9864 z m 12.57849,-7.59456 q -1.89864,0 -3.67861,-0.47466 -1.77998,-0.593325 -3.20396,-1.66131 -1.42398,-1.067985 -2.25463,-2.729295 -0.83066,-1.66131 -0.83066,-3.915945 0,-2.13597 0.83066,-4.03461 0.94932,-2.017305 2.49196,-3.441285 1.54265,-1.42398 3.55995,-2.254635 2.13597,-0.94932 4.50927,-0.94932 1.89864,0 3.67862,0.593325 1.77997,0.593325 3.20395,1.66131 1.42398,1.067985 2.25464,2.729295 0.83065,1.66131 0.83065,3.79728 0,4.627935 -3.32262,7.713225 -3.20395,2.966625 -8.06922,2.966625 z" /><path
               id="path36"
               style="font-style:italic;font-variant:normal;font-weight:900;font-stretch:normal;font-size:118.665px;line-height:1.05;font-family:'Source Sans Pro';-inkscape-font-specification:'Source Sans Pro Heavy Italic';text-align:center;text-anchor:middle"
               d="m 498.22073,64.257701 h 15.42645 v 7.59456 h 0.47466 q 4.15328,-3.55995 9.01854,-6.289245 4.98393,-2.729295 10.67985,-2.729295 7.35723,0 10.67985,3.915945 3.32262,3.79728 3.32262,11.510505 0,4.03461 -0.94932,8.54388 l -7.35723,36.786149 h -18.9864 l 6.88257,-34.412849 q 0.356,-1.66131 0.59333,-2.84796 0.35599,-1.305315 0.35599,-2.3733 0,-2.491965 -1.30531,-3.678615 -1.30532,-1.305315 -3.67862,-1.305315 -2.49196,0 -4.86526,1.66131 -2.3733,1.542645 -5.57726,4.98393 l -7.35723,37.972799 h -18.9864 z" /><path
               id="path38"
               style="font-style:italic;font-variant:normal;font-weight:900;font-stretch:normal;font-size:118.665px;line-height:1.05;font-family:'Source Sans Pro';-inkscape-font-specification:'Source Sans Pro Heavy Italic';text-align:center;text-anchor:middle"
               d="m 572.80171,148.27252 q -4.98393,0 -11.03585,-2.0173 -5.93325,-2.01731 -11.27317,-6.28925 l 8.06922,-12.57849 q 3.44128,2.49197 7.1199,4.15328 3.67861,1.77997 7.59456,1.77997 5.22126,0 8.78121,-2.61063 3.55995,-2.49196 5.22126,-7.83189 l 3.08529,-9.73053 q -3.79728,3.91595 -8.30655,6.05192 -4.39061,2.0173 -9.01854,2.0173 -7.4759,0 -12.45983,-4.98393 -4.86526,-5.10259 -4.86526,-15.66378 0,-7.950554 2.49196,-14.833124 2.49197,-6.88257 6.76391,-11.985165 4.27194,-5.102595 9.84919,-7.950555 5.57726,-2.966625 11.74784,-2.966625 3.79728,0 7.1199,2.017305 3.32262,1.89864 4.98393,5.339925 h 0.23733 l 2.61063,-5.93325 h 15.42645 L 605.55325,121.2169 q -2.7293,13.76514 -11.27318,20.41038 -8.42521,6.64524 -21.47836,6.64524 z m 7.83189,-42.48207 q 2.49196,0 5.22126,-1.18665 2.84796,-1.30531 5.22126,-5.458589 l 3.08529,-16.37577 q -1.06799,-2.3733 -2.84796,-3.441285 -1.66131,-1.067985 -3.32262,-1.067985 -2.61063,0 -4.86527,1.42398 -2.25463,1.42398 -4.03461,4.153275 -1.66131,2.61063 -2.72929,6.289245 -0.94932,3.678615 -0.94932,8.06922 0,3.915949 1.42398,5.814589 1.42398,1.77997 3.79728,1.77997 z" /></g><path
             style="fill:#000000"
             fill="#231f20"
             stroke="#000000"
             stroke-width="0.179128"
             stroke-linecap="round"
             stroke-linejoin="round"
             stroke-miterlimit="10"
             d="M 204.2563,22.455448 197.91873,0.30058803 C 207.95518,-2.570502 218.5343,-2.992342 228.76738,-0.92935197 223.30661,-33.667652 243.28497,-65.291042 275.19575,-74.419572 l 6.33758,22.15509 c -22.42077,6.41371 -35.39702,29.78866 -28.98331,52.20943003 6.41369,22.42075997 29.78863,35.39703997 52.20936,28.98331997 l 6.33764,22.15488 c -10.03646,2.87107 -20.61531,3.29291 -30.84866,1.22992 5.46079,32.73824 -14.51759,64.361642 -46.42837,73.489942 l -6.33757,-22.15487 c 22.42076,-6.413712 35.39702,-29.788572 28.98331,-52.209622 -6.41346,-22.42051 -29.78867,-35.39678 -52.20943,-28.98307 z"
             id="path2-9" /></g></g></g></g></g><g
   style="display:inline"
   inkscape:label="Layer 1"
   id="layer1"
   inkscape:groupmode="layer" /></svg>
