<?xml version="1.0" encoding="UTF-8" standalone="no"?>
<svg
   xmlns:dc="http://purl.org/dc/elements/1.1/"
   xmlns:cc="http://creativecommons.org/ns#"
   xmlns:rdf="http://www.w3.org/1999/02/22-rdf-syntax-ns#"
   xmlns:svg="http://www.w3.org/2000/svg"
   xmlns="http://www.w3.org/2000/svg"
   xmlns:sodipodi="http://sodipodi.sourceforge.net/DTD/sodipodi-0.dtd"
   xmlns:inkscape="http://www.inkscape.org/namespaces/inkscape"
   width="32"
   height="32"
   viewBox="0 0 32 32"
   fill="none"
   version="1.1"
   id="svg4"
   sodipodi:docname="favicon.svg"
   inkscape:version="1.0 (4035a4fb49, 2020-05-01)">
  <metadata
     id="metadata10">
    <rdf:RDF>
      <cc:Work
         rdf:about="">
        <dc:format>image/svg+xml</dc:format>
        <dc:type
           rdf:resource="http://purl.org/dc/dcmitype/StillImage" />
        <dc:title></dc:title>
      </cc:Work>
    </rdf:RDF>
  </metadata>
  <defs
     id="defs8" />
  <sodipodi:namedview
     inkscape:document-rotation="0"
     pagecolor="#ffffff"
     bordercolor="#666666"
     borderopacity="1"
     objecttolerance="10"
     gridtolerance="10"
     guidetolerance="10"
     inkscape:pageopacity="0"
     inkscape:pageshadow="2"
     inkscape:window-width="1920"
     inkscape:window-height="1017"
     id="namedview6"
     showgrid="false"
     inkscape:zoom="11.654317"
     inkscape:cx="15.926972"
     inkscape:cy="23.293196"
     inkscape:window-x="-8"
     inkscape:window-y="-8"
     inkscape:window-maximized="1"
     inkscape:current-layer="svg4" />
  <path
     id="path2"
     d="M 8.5081172,15.480134 7.5427309,12.105372 C 9.0715419,11.668041 10.68302,11.603781 12.24178,11.918027 11.409962,6.9311446 14.45318,2.1140842 19.314013,0.72357009 L 20.2794,4.0983691 c -3.415263,0.9769663 -5.391882,4.5375732 -4.41491,7.9528359 0.976967,3.415263 4.537573,5.391882 7.952836,4.41491 l 0.96538,3.374761 c -1.528811,0.437332 -3.140245,0.501592 -4.699049,0.187346 0.831818,4.986882 -2.211401,9.803942 -7.072234,11.194418 l -0.96538,-3.374761 c 3.415256,-0.976972 5.391882,-4.537573 4.41491,-7.952873 -0.976935,-3.415225 -4.53758,-5.391845 -7.9528358,-4.414872 z"
     stroke-miterlimit="10"
     stroke-linejoin="round"
     stroke-linecap="round"
     stroke-width="0.0272859"
     stroke="#000000"
     fill="#231f20" />
</svg>
