<?xml version="1.0" encoding="UTF-8" standalone="no"?>
<svg
   xmlns:dc="http://purl.org/dc/elements/1.1/"
   xmlns:cc="http://creativecommons.org/ns#"
   xmlns:rdf="http://www.w3.org/1999/02/22-rdf-syntax-ns#"
   xmlns:svg="http://www.w3.org/2000/svg"
   xmlns="http://www.w3.org/2000/svg"
   xmlns:sodipodi="http://sodipodi.sourceforge.net/DTD/sodipodi-0.dtd"
   xmlns:inkscape="http://www.inkscape.org/namespaces/inkscape"
   inkscape:version="1.0 (4035a4fb49, 2020-05-01)"
   sodipodi:docname="favicon22.svg"
   id="svg4"
   version="1.1"
   fill="none"
   viewBox="0 0 32 32"
   height="32"
   width="32">
  <metadata
     id="metadata10">
    <rdf:RDF>
      <cc:Work
         rdf:about="">
        <dc:format>image/svg+xml</dc:format>
        <dc:type
           rdf:resource="http://purl.org/dc/dcmitype/StillImage" />
        <dc:title></dc:title>
      </cc:Work>
    </rdf:RDF>
  </metadata>
  <defs
     id="defs8" />
  <sodipodi:namedview
     inkscape:current-layer="svg4"
     inkscape:window-maximized="1"
     inkscape:window-y="-8"
     inkscape:window-x="-8"
     inkscape:cy="17.188045"
     inkscape:cx="21.307108"
     inkscape:zoom="18.760427"
     showgrid="false"
     id="namedview6"
     inkscape:window-height="1017"
     inkscape:window-width="1920"
     inkscape:pageshadow="2"
     inkscape:pageopacity="0"
     guidetolerance="10"
     gridtolerance="10"
     objecttolerance="10"
     borderopacity="1"
     bordercolor="#666666"
     pagecolor="#ffffff" />
  <g
     id="g2003"
     inkscape:label="0"
     transform="matrix(0.19020269,0,0,0.19020269,16.261256,-197.40826)">
    <path
       id="path1983"
       style="fill:none;stroke:#000000;stroke-width:0.9;stroke-linecap:round"
       d="m -16.965573,1204.619 a 53.525306,53.525306 0 0 0 38.074844,-60.2677" />
    <path
       id="path1985"
       style="fill:none;stroke:#000000;stroke-width:0.9;stroke-linecap:round"
       d="m 21.109271,1144.3513 a 53.525306,53.525306 0 0 0 25.29835,-1.0086" />
    <path
       id="path1987"
       style="fill:none;stroke:#000000;stroke-width:0.9;stroke-linecap:round"
       d="m 46.407621,1143.3427 -5.197403,-18.1689" />
    <path
       id="path1989"
       style="fill:none;stroke:#000000;stroke-width:0.9;stroke-linecap:round"
       d="m 22.162976,1058.5893 a 34.627668,34.627668 0 0 0 19.047242,66.5845" />
    <path
       id="path1991"
       style="fill:none;stroke:#000000;stroke-width:0.9;stroke-linecap:round"
       d="m 22.162976,1058.5893 -5.197403,-18.1689" />
    <path
       id="path1993"
       style="fill:none;stroke:#000000;stroke-width:0.9;stroke-linecap:round"
       d="m 16.965573,1040.4204 a 53.525306,53.525306 0 0 0 -38.074844,60.2676" />
    <path
       id="path1995"
       style="fill:none;stroke:#000000;stroke-width:0.9;stroke-linecap:round"
       d="m -21.109271,1100.688 a 53.525306,53.525306 0 0 0 -25.29835,1.0087" />
    <path
       id="path1997"
       style="fill:none;stroke:#000000;stroke-width:0.9;stroke-linecap:round"
       d="m -46.407621,1101.6967 5.197403,18.1689" />
    <path
       id="path1999"
       style="fill:none;stroke:#000000;stroke-width:0.9;stroke-linecap:round"
       d="m -22.162976,1186.4501 a 34.627668,34.627668 0 0 0 -19.047242,-66.5845" />
    <path
       id="path2001"
       style="fill:none;stroke:#000000;stroke-width:0.9;stroke-linecap:round"
       d="m -22.162976,1186.4501 5.197403,18.1689" />
  </g>
  <path
     style="opacity:1;fill:#000000;stroke-width:0.0661799"
     d="M 19.312353,0.51060033 C 18.335798,0.72943533 17.447792,1.2511382 16.597814,1.764916 13.44572,3.8395124 11.63824,7.756481 12.11891,11.501631 c 0.08547,0.300764 -0.0011,0.425556 -0.308021,0.310218 -1.310622,-0.159491 -2.6659877,-0.149387 -3.9552817,0.154333 -0.3658714,0.03509 -0.4563597,0.431416 -0.3078916,0.719448 0.2460306,0.930936 0.4891786,1.877156 0.8058436,2.779005 0.32065,0.187075 0.767934,-0.005 1.136007,0.0025 2.2688567,-0.288147 4.6597007,0.736741 5.9675497,2.589946 0.827347,1.084988 1.312412,2.458834 1.230887,3.834808 0.04864,0.977572 -0.121332,1.970003 -0.596208,2.836282 -0.736279,1.636869 -2.214301,2.871409 -3.907222,3.426383 -0.342125,0.195199 0.01555,0.637058 0.0331,0.924947 0.268231,0.794966 0.375544,1.658571 0.767,2.404857 0.326974,0.403751 0.851295,-0.01438 1.220336,-0.12583 3.265183,-1.348223 5.695321,-4.507451 6.159,-8.007848 0.08819,-0.996197 0.119089,-2.004563 -0.0032,-2.999277 1.509491,0.182163 3.094501,0.284514 4.553487,-0.220255 0.34028,-0.272085 -0.03081,-0.734253 -0.05352,-1.075164 -0.234488,-0.791791 -0.417026,-1.612624 -0.696492,-2.382523 -0.282639,-0.175287 -0.678643,0.06114 -1.009838,0.05059 -2.538,0.358413 -5.258535,-0.929484 -6.499334,-3.205223 -0.609829,-1.055803 -0.93358,-2.278009 -0.839966,-3.49538 -0.0097,-1.6634048 0.752828,-3.2599811 1.927459,-4.4230801 C 18.490968,4.8649973 19.448777,4.3352564 20.438617,4.0001392 20.628636,3.6868918 20.284035,3.2716771 20.254131,2.9226857 20.000203,2.1462591 19.843469,1.3212839 19.515848,0.57730513 c -0.04829,-0.056343 -0.133096,-0.069186 -0.203539,-0.066713 z"
     id="path2202" />
</svg>
